<svg width="22" height="22" viewBox="0 0 22 22" fill="none" xmlns="http://www.w3.org/2000/svg">
<g clip-path="url(#clip0_229_22)">
<path fill-rule="evenodd" clip-rule="evenodd" d="M19.3121 0C20.7956 0 22 1.20441 22 2.68787V19.3121C22 20.7956 20.7956 22 19.3121 22H2.68787C1.20441 22 0 20.7956 0 19.3121V2.68787C0 1.20441 1.20437 0 2.68787 0L19.3121 0ZM11 3.48047C8.95782 3.48047 8.70173 3.48911 7.89972 3.52571C7.09934 3.56224 6.55273 3.68934 6.07441 3.87527C5.57992 4.06742 5.16059 4.32455 4.74255 4.74255C4.3245 5.16059 4.06738 5.57996 3.87522 6.07441C3.68934 6.55273 3.56224 7.09934 3.52567 7.89972C3.48911 8.70173 3.48047 8.95782 3.48047 11C3.48047 13.0422 3.48911 13.2983 3.52567 14.1003C3.56224 14.9007 3.68934 15.4473 3.87522 15.9256C4.06738 16.42 4.3245 16.8394 4.74255 17.2575C5.16059 17.6755 5.57992 17.9326 6.07441 18.1248C6.55273 18.3107 7.09934 18.4378 7.89972 18.4743C8.70173 18.5109 8.95782 18.5195 11 18.5195C13.0422 18.5195 13.2983 18.5109 14.1003 18.4743C14.9007 18.4378 15.4473 18.3107 15.9256 18.1248C16.42 17.9326 16.8394 17.6755 17.2575 17.2575C17.6755 16.8394 17.9326 16.42 18.1248 15.9256C18.3107 15.4473 18.4378 14.9007 18.4743 14.1003C18.5109 13.2983 18.5195 13.0422 18.5195 11C18.5195 8.95782 18.5109 8.70173 18.4743 7.89972C18.4378 7.09934 18.3107 6.55273 18.1248 6.07441C17.9326 5.57996 17.6755 5.16059 17.2575 4.74255C16.8394 4.32455 16.42 4.06742 15.9256 3.87527C15.4473 3.68934 14.9007 3.56224 14.1003 3.52571C13.2983 3.48911 13.0422 3.48047 11 3.48047ZM11 4.83536C13.0078 4.83536 13.2456 4.84301 14.0385 4.87919C14.7717 4.91266 15.1698 5.03516 15.4348 5.13807C15.7858 5.2745 16.0363 5.43748 16.2994 5.70058C16.5626 5.96372 16.7255 6.21423 16.8619 6.5652C16.9649 6.83018 17.0874 7.22833 17.1208 7.96146C17.157 8.75437 17.1647 8.9922 17.1647 11C17.1647 13.0078 17.157 13.2456 17.1208 14.0385C17.0874 14.7717 16.9649 15.1698 16.8619 15.4348C16.7255 15.7858 16.5626 16.0363 16.2994 16.2994C16.0363 16.5626 15.7858 16.7255 15.4348 16.8619C15.1698 16.9649 14.7717 17.0874 14.0385 17.1208C13.2458 17.157 13.0079 17.1647 11 17.1647C8.99207 17.1647 8.75428 17.157 7.96146 17.1208C7.22833 17.0874 6.83018 16.9649 6.5652 16.8619C6.21418 16.7255 5.96372 16.5626 5.70058 16.2994C5.43744 16.0363 5.27446 15.7858 5.13807 15.4348C5.03512 15.1698 4.91262 14.7717 4.87914 14.0385C4.84297 13.2456 4.83532 13.0078 4.83532 11C4.83532 8.9922 4.84297 8.75437 4.87914 7.96146C4.91262 7.22833 5.03512 6.83018 5.13807 6.5652C5.27446 6.21423 5.43744 5.96372 5.70058 5.70058C5.96372 5.43748 6.21418 5.2745 6.5652 5.13807C6.83018 5.03516 7.22833 4.91266 7.96146 4.87919C8.75437 4.84301 8.9922 4.83536 11 4.83536ZM11 7.13861C8.86742 7.13861 7.13861 8.86742 7.13861 11C7.13861 13.1326 8.86742 14.8614 11 14.8614C13.1326 14.8614 14.8614 13.1326 14.8614 11C14.8614 8.86742 13.1326 7.13861 11 7.13861ZM11 13.5065C9.61568 13.5065 8.4935 12.3843 8.4935 11C8.4935 9.61568 9.61568 8.4935 11 8.4935C12.3843 8.4935 13.5065 9.61568 13.5065 11C13.5065 12.3843 12.3843 13.5065 11 13.5065ZM15.9163 6.98607C15.9163 7.48443 15.5123 7.88837 15.0139 7.88837C14.5156 7.88837 14.1116 7.48443 14.1116 6.98607C14.1116 6.48772 14.5156 6.08373 15.0139 6.08373C15.5123 6.08373 15.9163 6.48772 15.9163 6.98607Z" fill="#2B0EDD"/>
</g>
<defs>
<clipPath id="clip0_229_22">
<rect width="22" height="22" fill="white"/>
</clipPath>
</defs>
</svg>
